[img]http://a.imageshack.us/img804/2277/roscoedashstep.png[/img]

[img]http://a.imageshack.us/img820/4230/roscoedashstep2.png[/img]

[code]General
Complete name                    : Rosco Dash ft Fabo and T-Pain - My Own Step [KingPinVideos].mpg
Format                           : MPEG-PS
File size                        : 88.8 MiB
Duration                         : 4mn 20s
Overall bit rate                 : 2 858 Kbps
Writing library                  : encoded by TMPGEnc 4.0 XPress Version. 4.7.4.299

Video
ID                               : 224 (0xE0)
Format                           : MPEG Video
Format version                   : Version 1
Format settings, BVOP            : Yes
Format settings, Matrix          : Default
Duration                         : 4mn 20s
Bit rate mode                    : Constant
Bit rate                         : 2 617 Kbps
Nominal bit rate                 : 2 700 Kbps
Width                            : 384 pixels
Height                           : 208 pixels
Display aspect ratio             : 16:9
Frame rate                       : 29.970 fps
Resolution                       : 8 bits
Scan type                        : Progressive
Bits/(Pixel*Frame)               : 1.093
Stream size                      : 81.3 MiB (92%)
Writing library                  : TMPGEnc XPress 4.7.4.299

Audio
ID                               : 192 (0xC0)
Format                           : MPEG Audio
Format version                   : Version 1
Format profile                   : Layer 2
Duration                         : 4mn 20s
Bit rate mode                    : Constant
Bit rate                         : 128 Kbps
Channel(s)                       : 2 channels
Sampling rate                    : 48.0 KHz
Stream size                      : 3.97 MiB (4%)[/code]